<svg width="16" height="20" viewBox="0 0 16 20" fill="none" xmlns="http://www.w3.org/2000/svg">
<path d="M15.2 3.33333H12.72C12.5343 2.39284 12.0431 1.54779 11.329 0.940598C10.6149 0.333408 9.72176 0.0012121 8.8 0L7.2 0C6.27824 0.0012121 5.38505 0.333408 4.671 0.940598C3.95694 1.54779 3.46568 2.39284 3.28 3.33333H0.8C0.587827 3.33333 0.384344 3.42113 0.234315 3.57741C0.0842854 3.73369 0 3.94565 0 4.16667C0 4.38768 0.0842854 4.59964 0.234315 4.75592C0.384344 4.9122 0.587827 5 0.8 5H1.6V15.8333C1.60127 16.938 2.02311 17.997 2.77298 18.7782C3.52285 19.5593 4.53952 19.9987 5.6 20H10.4C11.4605 19.9987 12.4772 19.5593 13.227 18.7782C13.9769 17.997 14.3987 16.938 14.4 15.8333V5H15.2C15.4122 5 15.6157 4.9122 15.7657 4.75592C15.9157 4.59964 16 4.38768 16 4.16667C16 3.94565 15.9157 3.73369 15.7657 3.57741C15.6157 3.42113 15.4122 3.33333 15.2 3.33333ZM7.2 1.66667H8.8C9.29622 1.6673 9.7801 1.82781 10.1853 2.1262C10.5905 2.42459 10.8971 2.84624 11.0632 3.33333H4.9368C5.10287 2.84624 5.40952 2.42459 5.81471 2.1262C6.2199 1.82781 6.70378 1.6673 7.2 1.66667ZM12.8 15.8333C12.8 16.4964 12.5471 17.1323 12.0971 17.6011C11.647 18.0699 11.0365 18.3333 10.4 18.3333H5.6C4.96348 18.3333 4.35303 18.0699 3.90294 17.6011C3.45286 17.1323 3.2 16.4964 3.2 15.8333V5H12.8V15.8333Z" fill="black"/>
<path d="M6.4 15C6.61217 15 6.81566 14.9122 6.96569 14.7559C7.11571 14.5996 7.2 14.3877 7.2 14.1667V9.16667C7.2 8.94565 7.11571 8.73369 6.96569 8.57741C6.81566 8.42113 6.61217 8.33333 6.4 8.33333C6.18783 8.33333 5.98434 8.42113 5.83431 8.57741C5.68429 8.73369 5.6 8.94565 5.6 9.16667V14.1667C5.6 14.3877 5.68429 14.5996 5.83431 14.7559C5.98434 14.9122 6.18783 15 6.4 15Z" fill="black"/>
<path d="M9.6 15C9.81217 15 10.0157 14.9122 10.1657 14.7559C10.3157 14.5996 10.4 14.3877 10.4 14.1667V9.16667C10.4 8.94565 10.3157 8.73369 10.1657 8.57741C10.0157 8.42113 9.81217 8.33333 9.6 8.33333C9.38783 8.33333 9.18434 8.42113 9.03432 8.57741C8.88429 8.73369 8.8 8.94565 8.8 9.16667V14.1667C8.8 14.3877 8.88429 14.5996 9.03432 14.7559C9.18434 14.9122 9.38783 15 9.6 15Z" fill="black"/>
</svg>
