<svg width="24" height="24" viewBox="0 0 24 24" fill="none" xmlns="http://www.w3.org/2000/svg">
<path d="M12.9821 1.00324C12.9821 0.737592 13.0876 0.48282 13.2754 0.294975C13.4633 0.10713 13.718 0.0015996 13.9837 0.0015996C16.6393 0.00451598 19.1853 1.06075 21.0631 2.93857C22.9409 4.81639 23.9971 7.36242 24 10.0181C24 10.2837 23.8945 10.5385 23.7066 10.7263C23.5188 10.9142 23.264 11.0197 22.9984 11.0197C22.7327 11.0197 22.4779 10.9142 22.2901 10.7263C22.1023 10.5385 21.9967 10.2837 21.9967 10.0181C21.9944 7.89356 21.1494 5.85677 19.6471 4.35453C18.1449 2.85228 16.1082 2.00728 13.9837 2.00489C13.718 2.00489 13.4633 1.89936 13.2754 1.71152C13.0876 1.52367 12.9821 1.2689 12.9821 1.00324ZM13.9837 6.01147C15.0463 6.01147 16.0654 6.43359 16.8167 7.18497C17.5681 7.93635 17.9902 8.95544 17.9902 10.0181C17.9902 10.2837 18.0957 10.5385 18.2836 10.7263C18.4714 10.9142 18.7262 11.0197 18.9918 11.0197C19.2575 11.0197 19.5123 10.9142 19.7001 10.7263C19.8879 10.5385 19.9935 10.2837 19.9935 10.0181C19.9919 8.42462 19.3582 6.89691 18.2315 5.77019C17.1048 4.64346 15.5771 4.00977 13.9837 4.00818C13.718 4.00818 13.4633 4.11371 13.2754 4.30156C13.0876 4.4894 12.9821 4.74417 12.9821 5.00983C12.9821 5.27548 13.0876 5.53025 13.2754 5.7181C13.4633 5.90594 13.718 6.01147 13.9837 6.01147ZM23.0915 16.7681C23.672 17.3502 23.9979 18.1387 23.9979 18.9607C23.9979 19.7828 23.672 20.5713 23.0915 21.1533L22.18 22.2041C13.9767 30.058 -5.98582 10.1002 1.74677 1.87067L2.89864 0.869025C3.48136 0.304775 4.2628 -0.00736605 5.07389 0.000132026C5.88498 0.00763011 6.66051 0.334164 7.2327 0.90909C7.26375 0.940141 9.11977 3.3511 9.11977 3.3511C9.6705 3.92968 9.97707 4.69824 9.97577 5.49703C9.97446 6.29582 9.66538 7.06337 9.11276 7.64015L7.95287 9.09854C8.59477 10.6582 9.53852 12.0757 10.7299 13.2695C11.9213 14.4633 13.3368 15.4099 14.8952 16.055L16.3626 14.8881C16.9394 14.3359 17.7068 14.0271 18.5054 14.026C19.3039 14.0249 20.0722 14.3315 20.6505 14.882C20.6505 14.882 23.0605 16.7371 23.0915 16.7681ZM21.7133 18.2245C21.7133 18.2245 19.3164 16.3805 19.2853 16.3495C19.079 16.1448 18.8001 16.03 18.5096 16.03C18.219 16.03 17.9401 16.1448 17.7338 16.3495C17.7068 16.3775 15.6865 17.9871 15.6865 17.9871C15.5503 18.0955 15.3883 18.1665 15.2163 18.1932C15.0444 18.2199 14.8685 18.2014 14.7059 18.1394C12.687 17.3877 10.8533 16.211 9.32895 14.6888C7.80456 13.1666 6.62511 11.3346 5.87048 9.3169C5.80357 9.15209 5.78176 8.97243 5.80728 8.79639C5.83281 8.62035 5.90475 8.45428 6.01572 8.31526C6.01572 8.31526 7.62534 6.29394 7.65238 6.26789C7.85698 6.06154 7.97178 5.78271 7.97178 5.49212C7.97178 5.20153 7.85698 4.9227 7.65238 4.71634C7.62133 4.68629 5.77733 2.28735 5.77733 2.28735C5.56789 2.09955 5.29455 1.99898 5.01333 2.00624C4.73212 2.0135 4.46433 2.12806 4.26487 2.32642L3.11299 3.32806C-2.53821 10.1232 14.761 26.4631 20.7157 20.8358L21.6281 19.7841C21.842 19.586 21.9704 19.3126 21.9863 19.0215C22.0022 18.7305 21.9043 18.4447 21.7133 18.2245Z" fill="white"/>
</svg>
