<svg width="25" height="25" viewBox="0 0 25 25" fill="none" xmlns="http://www.w3.org/2000/svg">
<path d="M24.2546 4.24687C23.9542 3.89525 23.5781 3.61245 23.1531 3.41856C22.7281 3.22467 22.2645 3.12444 21.7952 3.125H4.52991L4.48506 2.75937C4.39327 1.99939 4.01881 1.29868 3.43266 0.790081C2.84651 0.281483 2.08943 0.000356035 1.30494 0H1.06787C0.784654 0 0.513037 0.109747 0.312772 0.305097C0.112508 0.500447 0 0.765399 0 1.04167C0 1.31793 0.112508 1.58289 0.312772 1.77824C0.513037 1.97359 0.784654 2.08333 1.06787 2.08333H1.30494C1.5665 2.08337 1.81894 2.17704 2.0144 2.34658C2.20986 2.51612 2.33473 2.74974 2.36533 3.00312L3.83472 15.1906C3.98727 16.4581 4.61158 17.6269 5.58914 18.475C6.5667 19.3232 7.82947 19.7917 9.13777 19.7917H20.2895C20.5728 19.7917 20.8444 19.6819 21.0446 19.4866C21.2449 19.2912 21.3574 19.0263 21.3574 18.75C21.3574 18.4737 21.2449 18.2088 21.0446 18.0134C20.8444 17.8181 20.5728 17.7083 20.2895 17.7083H9.13777C8.47682 17.7065 7.83262 17.5053 7.29349 17.1324C6.75436 16.7594 6.34669 16.2329 6.12638 15.625H18.8554C20.1073 15.6251 21.3193 15.1961 22.2799 14.413C23.2404 13.6298 23.8883 12.5424 24.1104 11.3406L24.9487 6.80521C25.0323 6.35522 25.0135 5.89278 24.8936 5.45066C24.7736 5.00855 24.5555 4.59758 24.2546 4.24687ZM22.8524 6.43542L22.0131 10.9708C21.8797 11.6927 21.4903 12.3458 20.913 12.8158C20.3357 13.2858 19.6073 13.5428 18.8554 13.5417H5.78679L4.78193 5.20833H21.7952C21.9521 5.20742 22.1073 5.24023 22.2497 5.30443C22.3921 5.36863 22.5182 5.46265 22.6191 5.5798C22.7201 5.69695 22.7933 5.83434 22.8336 5.98223C22.8739 6.13011 22.8804 6.28484 22.8524 6.43542Z" fill="white"/>
<path d="M7.4751 25C8.65463 25 9.61084 24.0673 9.61084 22.9167C9.61084 21.7661 8.65463 20.8333 7.4751 20.8333C6.29556 20.8333 5.33935 21.7661 5.33935 22.9167C5.33935 24.0673 6.29556 25 7.4751 25Z" fill="white"/>
<path d="M18.1538 25C19.3333 25 20.2895 24.0673 20.2895 22.9167C20.2895 21.7661 19.3333 20.8333 18.1538 20.8333C16.9743 20.8333 16.0181 21.7661 16.0181 22.9167C16.0181 24.0673 16.9743 25 18.1538 25Z" fill="white"/>
</svg>
