<svg width="35" height="50" viewBox="0 0 35 50" fill="none" xmlns="http://www.w3.org/2000/svg">
<path d="M4.00208 36.6785L30.4351 26.6021V33.0302L4.00208 42.7639L4.00208 36.6785Z" fill="#EEEEEE"/>
<path d="M4.71241 24.884L2 23.85L2 26.7528L2 33.0072L2 34.3684L3.26629 34.8677L29.6994 45.2917L32.4331 46.3697V43.4311V36.8293V35.4513L31.1455 34.9605L4.71241 24.884Z" fill="#EEEEEE" stroke="#C72230" stroke-width="4"/>
<path d="M21.2585 21.5051C21.2585 20.0617 20.3369 19.2225 18.5701 17.7431C18.1709 17.4056 17.7397 17.0478 17.2949 16.6496C16.7873 17.1097 16.3049 17.5147 15.8623 17.8871C14.0989 19.3563 13.3267 20.0752 13.3267 21.5051C13.3267 22.5425 13.7446 23.5375 14.4883 24.271C15.2321 25.0046 16.2408 25.4167 17.2926 25.4167C18.3444 25.4167 19.3532 25.0046 20.0969 24.271C20.8407 23.5375 21.2585 22.5425 21.2585 21.5051Z" fill="#EEEEEE"/>
<path d="M22.3204 5.10822C20.9517 3.96185 19.5373 2.77722 18.107 1.3676L17.2926 0.568848L16.4942 1.36872C13.9233 3.91347 12.7074 7.82172 12.1804 10.1662C11.776 9.54866 11.476 8.87047 11.2919 8.1581L10.8048 6.31647L9.39847 7.6181C6.9359 9.8996 5.29228 12.162 5.29228 15.7845C5.26861 18.3984 6.13127 20.9452 7.74321 23.0202C9.35515 25.0952 11.6239 26.5794 14.189 27.237C14.8336 27.398 15.4899 27.509 16.152 27.5688C14.7163 27.3049 13.4192 26.5545 12.4851 25.4472C11.551 24.34 11.0385 22.9455 11.0364 21.5051C11.0364 18.9738 12.5842 17.6801 14.3761 16.1703C15.016 15.6337 15.7448 15.0251 16.4805 14.295L17.2926 13.4985L18.1002 14.295C18.7572 14.943 19.4141 15.492 20.0495 16.0252C21.8471 17.5293 23.5443 18.9502 23.5443 21.5051C23.5425 22.9399 23.0341 24.3292 22.1067 25.4345C21.1792 26.5398 19.8904 27.2921 18.4617 27.5621C21.4279 27.2782 24.1806 25.9148 26.1829 23.7378C28.1852 21.5607 29.2935 18.7261 29.2918 15.7867C29.2918 10.947 26.0605 8.24135 22.3204 5.10822Z" fill="#EEEEEE"/>
</svg>
