<svg width="23" height="24" viewBox="0 0 23 24" fill="none" xmlns="http://www.w3.org/2000/svg">
<path d="M11.5 23.3448C5.15871 23.3448 0 18.1861 0 11.8448C0 5.50353 5.15871 0.344818 11.5 0.344818C17.8413 0.344818 23 5.50353 23 11.8448C23 18.1861 17.8413 23.3448 11.5 23.3448ZM11.5 2.26148C6.21575 2.26148 1.91667 6.56057 1.91667 11.8448C1.91667 17.1291 6.21575 21.4282 11.5 21.4282C16.7843 21.4282 21.0833 17.1291 21.0833 11.8448C21.0833 6.56057 16.7843 2.26148 11.5 2.26148ZM13.8958 15.9944C14.3549 15.7299 14.512 15.1434 14.2466 14.6853L12.4583 11.588V6.09482C12.4583 5.56582 12.03 5.13649 11.5 5.13649C10.97 5.13649 10.5417 5.56582 10.5417 6.09482V11.8448C10.5417 12.0135 10.5857 12.1783 10.6701 12.324L12.5868 15.6437C12.765 15.9513 13.086 16.1228 13.4176 16.1228C13.5805 16.1228 13.7454 16.0816 13.8958 15.9944Z" fill="black"/>
</svg>
