<svg width="19" height="24" viewBox="0 0 19 24" fill="none" xmlns="http://www.w3.org/2000/svg">
<path d="M9.5 24L8.84101 23.4025C7.93252 22.5978 0 15.3506 0 10.0495C0 4.49935 4.25331 0 9.5 0C14.7467 0 19 4.49935 19 10.0495C19 15.3507 11.0675 22.5978 10.1628 23.4064L9.5 24ZM9.5 2.17301C5.38974 2.17793 2.05887 5.70147 2.05422 10.0495C2.05422 13.3798 6.93462 18.6998 9.5 21.1348C12.0654 18.6988 16.9458 13.3757 16.9458 10.0495C16.9411 5.70147 13.6103 2.17797 9.5 2.17301Z" fill="black"/>
<path d="M9.5 14.0331C7.42025 14.0331 5.73428 12.2496 5.73428 10.0495C5.73428 7.84949 7.42025 6.06599 9.5 6.06599C11.5797 6.06599 13.2657 7.84949 13.2657 10.0495C13.2657 12.2496 11.5798 14.0331 9.5 14.0331ZM9.5 8.05772C8.46013 8.05772 7.61714 8.94947 7.61714 10.0495C7.61714 11.1495 8.46013 12.0413 9.5 12.0413C10.5399 12.0413 11.3829 11.1495 11.3829 10.0495C11.3829 8.94947 10.5399 8.05772 9.5 8.05772Z" fill="black"/>
</svg>
