<svg width="34" height="34" viewBox="0 0 34 34"  xmlns="http://www.w3.org/2000/svg">
<path d="M33.0057 15.6881C32.6168 15.228 32.1345 14.8558 31.5907 14.5962C31.0469 14.3367 30.4542 14.1956 29.8517 14.1825C30.591 11.4197 31.0342 8.58621 31.1737 5.72973L31.2346 4.18733L29.6916 4.25673C27.9519 4.35009 26.2193 4.54684 24.5029 4.84593C25.1932 3.32787 25.536 1.67496 25.5061 0.00769265H22.6723C22.688 1.10001 22.4957 2.18535 22.1056 3.2058C21.8362 2.63191 21.4705 2.10833 21.0245 1.65774C20.034 0.670119 18.7118 0.0855623 17.3144 0.0175153C15.9171 -0.0505316 14.5443 0.402785 13.4625 1.28949C12.4125 0.42149 11.083 -0.0359393 9.72099 0.00220708C8.35901 0.0403535 7.0572 0.571481 6.0575 1.49688C5.05779 2.42229 4.42818 3.67903 4.28568 5.03354C4.14317 6.38806 4.49747 7.74823 5.28272 8.86127C4.48194 9.54639 3.84708 10.4042 3.42593 11.37C3.00478 12.3359 2.80832 13.3847 2.85132 14.4374C1.9051 14.756 1.10387 15.4021 0.59208 16.2591C0.0802863 17.116 -0.1084 18.1276 0.0600356 19.1114C0.54399 22.2383 1.76367 25.2056 3.61876 27.7694C5.47384 30.3331 7.91132 32.42 10.7307 33.8584L11.0141 34H22.9883L23.2717 33.8584C26.092 32.4193 28.5301 30.3311 30.385 27.7658C32.2399 25.2004 33.4587 22.2313 33.9409 19.1029C34.0432 18.4999 34.0124 17.882 33.8509 17.2921C33.6894 16.7023 33.4009 16.1549 33.0057 15.6881ZM26.8847 14.1712H23.2589L25.091 12.3398L23.086 10.3371L19.2505 14.1712H17.0557C16.9524 13.4262 17.0235 12.6675 17.2634 11.9547C17.5034 11.2419 17.9057 10.5946 18.4386 10.0637C20.0425 8.46045 24.7637 7.53699 28.2251 7.2084C28.0354 9.57146 27.5859 11.9065 26.8847 14.1712ZM5.66953 14.1712C5.66953 13.0442 6.11737 11.9635 6.91453 11.1666C7.71169 10.3698 8.79287 9.92212 9.92023 9.92212C11.0476 9.92212 12.1288 10.3698 12.9259 11.1666C13.7231 11.9635 14.1709 13.0442 14.1709 14.1712H5.66953ZM7.9054 3.66045C8.43074 3.13693 9.14229 2.84295 9.8841 2.84295C10.6259 2.84295 11.3375 3.13693 11.8628 3.66045C11.9974 3.80208 13.4611 5.40256 13.4611 5.40256C13.4611 5.40256 14.9261 3.79642 15.0593 3.66187C15.4745 3.24023 16.0136 2.96221 16.5979 2.86835C17.1822 2.77448 17.7813 2.86968 18.3077 3.14006C18.8341 3.41044 19.2604 3.84186 19.5243 4.3714C19.7882 4.90095 19.8759 5.50092 19.7748 6.08382C17.8949 6.65718 16.2905 7.89925 15.2648 9.57511C14.3689 8.51677 13.1773 7.74986 11.8427 7.37263C10.5082 6.99539 9.09128 7.025 7.77363 7.45767C7.31268 6.9247 7.07015 6.23734 7.09458 5.53323C7.11902 4.82912 7.40862 4.16022 7.9054 3.66045ZM31.1524 18.6355C30.7358 21.2566 29.7259 23.748 28.1998 25.9198C26.6737 28.0916 24.6717 29.8863 22.3464 31.1673H11.6616C9.33605 29.8863 7.33387 28.0913 5.80776 25.9193C4.28166 23.7472 3.27192 21.2555 2.85557 18.6341C2.82175 18.4362 2.83203 18.2334 2.88567 18.0399C2.9393 17.8465 3.03498 17.6673 3.16588 17.5151C3.30084 17.355 3.46917 17.2263 3.65908 17.138C3.849 17.0497 4.05593 17.0039 4.26539 17.0038H29.7426C29.9521 17.0039 30.159 17.0497 30.3489 17.138C30.5388 17.2263 30.7072 17.355 30.8421 17.5151C30.9728 17.6678 31.0683 17.8472 31.122 18.0408C31.1756 18.2344 31.186 18.4374 31.1524 18.6355Z"/>
</svg>
