<svg width="26" height="32" viewBox="0 0 26 32" xmlns="http://www.w3.org/2000/svg">
<path d="M12.1653 18.6667H14.7872L13.8092 26.6667H11.1872L12.1653 18.6667ZM25.9058 10.204L23.2474 32H2.74262L0.0621354 10.0747C-0.0391361 9.49783 -0.0163979 8.90529 0.128763 8.3384C0.273923 7.7715 0.538009 7.24391 0.902589 6.79245C1.26717 6.34099 1.72346 5.97653 2.23961 5.72452C2.75576 5.4725 3.31935 5.339 3.89102 5.33333H13.7949L14.4452 0H23.3996V2.66667H16.7446L16.4181 5.33333H22.099C22.6835 5.33335 23.2606 5.468 23.7875 5.72733C24.3145 5.98667 24.7778 6.36406 25.1434 6.83164C25.509 7.29921 25.7674 7.84501 25.8996 8.42872C26.0318 9.01243 26.033 9.61913 25.9058 10.204ZM16.0917 8L15.4414 13.3333H22.9093L23.3476 9.74933C23.4059 9.53684 23.4152 9.31336 23.3748 9.09654C23.3344 8.87972 23.2454 8.6755 23.1148 8.5C22.9929 8.34391 22.8383 8.21792 22.6625 8.13137C22.4866 8.04482 22.2941 7.99993 22.099 8H16.0917ZM2.62166 9.62133L3.07686 13.3333H12.8182L13.4684 8H3.89102C3.69688 8.00155 3.50551 8.04737 3.33079 8.13415C3.15607 8.22092 3.00237 8.34647 2.88085 8.50169C2.75932 8.65691 2.67302 8.83791 2.62819 9.03157C2.58336 9.22523 2.58113 9.42669 2.62166 9.62133ZM20.9506 29.3333L22.5816 16H3.40331L5.03813 29.3333H20.9506Z" />
</svg>
