<svg width="29" height="29" viewBox="0 0 29 29" xmlns="http://www.w3.org/2000/svg">
<path d="M26.3845 9.41906C27.9479 7.8557 28.6552 4.98652 28.9744 2.8573C29.0299 2.47255 28.9949 2.08015 28.8722 1.71128C28.7495 1.34241 28.5425 1.00723 28.2676 0.732353C27.9928 0.457475 27.6576 0.250474 27.2887 0.127789C26.9198 0.00510461 26.5275 -0.0298841 26.1427 0.0256018C23.7439 0.425812 20.46 1.1283 19.0514 3.30467C16.4312 -1.25967 13.2138 2.55019 12.2913 6.22584C9.49346 5.44597 8.26381 8.66579 7.45493 11.0622C4.48298 10.0587 2.51941 14.8564 2.40575 17.5285C2.4844 19.4829 3.18266 21.3618 4.39955 22.8932L0.339407 26.9509C0.119161 27.179 -0.00270912 27.4844 4.57069e-05 27.8014C0.00280053 28.1184 0.12996 28.4217 0.354136 28.6459C0.578312 28.87 0.881568 28.9972 1.19859 29C1.51561 29.0027 1.82103 28.8808 2.04907 28.6606L6.10679 24.6029C7.63903 25.82 9.51869 26.5183 11.474 26.5967C14.0953 26.5011 19.032 24.4638 17.968 21.5414C20.2955 20.7507 23.6616 19.44 22.8044 16.7051C26.4909 15.745 30.3141 12.5748 25.6917 9.94743C25.9426 9.79914 26.1751 9.6218 26.3845 9.41906ZM21.2894 4.32393C22.8324 3.19788 24.6785 2.56215 26.5876 2.49941C25.8066 7.04198 25.0291 8.86529 20.5772 8.42397C20.4636 6.90172 20.6038 5.0107 21.2894 4.32393ZM16.3007 3.62387C17.6657 5.09292 18.8845 8.27767 17.4554 9.84345L15.6127 11.6801C15.4201 10.6013 15.0425 9.56399 14.4967 8.6138C14.4529 6.78343 15.0965 5.00309 16.3007 3.62387ZM11.4643 8.46025C12.8281 9.9293 14.0469 13.1128 12.6178 14.6798L10.7763 16.5164C10.5835 15.4378 10.206 14.4004 9.66032 13.4502C9.61594 11.6197 10.2596 9.83916 11.4643 8.46025ZM6.62791 13.2966C7.99056 14.7645 9.21054 17.9492 7.78259 19.515L6.12976 21.1618C5.24547 20.0132 4.80839 18.5825 4.8998 17.1358C4.99121 15.6891 5.60608 14.3248 6.62791 13.2966ZM11.474 24.1785C10.16 24.113 8.89519 23.6581 7.84063 22.8714L9.49104 21.221C11.0629 19.7895 14.2416 21.0179 15.713 22.3552C14.5277 23.3949 13.0439 24.0331 11.474 24.1785ZM16.3103 19.3421C16.1483 19.3421 15.6417 19.3288 15.5474 19.3421C14.5986 18.7972 13.563 18.42 12.486 18.2273L14.3286 16.3859C15.8932 14.9543 19.078 16.1839 20.5494 17.52C19.364 18.5593 17.8802 19.1971 16.3103 19.3421ZM21.1467 14.5057C20.9847 14.5057 20.4781 14.4936 20.385 14.5057C19.4359 13.9604 18.3998 13.5829 17.3224 13.3897L19.165 11.5483C20.7296 10.1179 23.9143 11.3464 25.3858 12.6824C24.2005 13.7221 22.7167 14.3603 21.1467 14.5057Z" />
</svg>
