<svg width="33" height="33" viewBox="0 0 33 33" xmlns="http://www.w3.org/2000/svg">
<path d="M19.0573 32.9999H13.9404C10.7222 33.014 7.62744 31.7627 5.3233 29.5156C2.92201 27.095 1.16929 24.1082 0.227007 20.8312C-0.016311 20.0095 -0.0648255 19.1424 0.0853127 18.2987C0.235451 17.4549 0.58011 16.6578 1.09195 15.9706C1.60378 15.2833 2.26871 14.7248 3.03399 14.3393C3.79926 13.9538 4.64381 13.7521 5.50065 13.7499H27.4971C28.354 13.7519 29.1988 13.9536 29.9642 14.3389C30.7297 14.7243 31.3949 15.2828 31.907 15.97C32.419 16.6573 32.764 17.4544 32.9144 18.2982C33.0648 19.142 33.0165 20.0093 32.7735 20.8312C31.8318 24.1088 30.0784 27.0958 27.6758 29.5156C25.3716 31.7635 22.2761 33.015 19.0573 32.9999ZM5.50065 16.4999C5.07344 16.4979 4.65173 16.5964 4.26962 16.7875C3.8875 16.9786 3.55569 17.2569 3.30101 17.5999C3.03965 17.9471 2.86343 18.3508 2.78654 18.7785C2.70966 19.2063 2.73424 19.6461 2.85833 20.0625C3.68049 22.8908 5.19218 25.4705 7.25761 27.57C9.0471 29.3061 11.4474 30.2686 13.9404 30.2499H19.0573C21.5485 30.2671 23.9465 29.3035 25.7332 27.5673C27.7993 25.4683 29.3111 22.8884 30.1325 20.0598C30.2566 19.6433 30.2812 19.2035 30.2043 18.7758C30.1274 18.3481 29.9512 17.9444 29.6898 17.5972C29.4358 17.2553 29.105 16.9779 28.7241 16.7873C28.3432 16.5968 27.9229 16.4983 27.4971 16.4999H5.50065ZM21.998 8.24997C22.0004 7.4526 21.8445 6.66268 21.5394 5.92603C21.2342 5.18938 20.7859 4.52064 20.2204 3.95861C19.9107 3.65036 19.6653 3.28367 19.4985 2.87981C19.3316 2.47595 19.2466 2.04297 19.2484 1.60599V1.37499C19.2484 1.01032 19.1036 0.660588 18.8457 0.402727C18.5879 0.144865 18.2382 0 17.8736 0C17.509 0 17.1593 0.144865 16.9015 0.402727C16.6437 0.660588 16.4989 1.01032 16.4989 1.37499V1.60599C16.4966 2.40355 16.6525 3.19363 16.9576 3.93049C17.2627 4.66736 17.711 5.33635 18.2764 5.89873C18.586 6.20681 18.8313 6.57328 18.9981 6.97689C19.1649 7.3805 19.25 7.81322 19.2484 8.24997C19.2484 8.61464 19.3933 8.96437 19.6511 9.22223C19.9089 9.4801 20.2586 9.62496 20.6232 9.62496C20.9878 9.62496 21.3375 9.4801 21.5953 9.22223C21.8531 8.96437 21.998 8.61464 21.998 8.24997ZM16.4989 9.62496V9.20146C16.501 8.40426 16.3451 7.61454 16.0403 6.87795C15.7354 6.14136 15.2876 5.47253 14.7226 4.91011C14.4134 4.60262 14.1681 4.23687 14.001 3.834C13.834 3.43113 13.7484 2.99914 13.7493 2.56299V1.37499C13.7493 1.01032 13.6045 0.660588 13.3466 0.402727C13.0888 0.144865 12.7391 0 12.3745 0C12.0099 0 11.6602 0.144865 11.4024 0.402727C11.1446 0.660588 10.9998 1.01032 10.9998 1.37499V2.56299C10.9977 3.3603 11.1538 4.1501 11.4589 4.88671C11.764 5.62331 12.2121 6.29209 12.7773 6.85435C13.0864 7.16194 13.3314 7.52775 13.4982 7.93061C13.665 8.33347 13.7504 8.76541 13.7493 9.20146V9.62496C13.7493 9.98963 13.8941 10.3394 14.152 10.5972C14.4098 10.8551 14.7595 11 15.1241 11C15.4887 11 15.8384 10.8551 16.0962 10.5972C16.354 10.3394 16.4989 9.98963 16.4989 9.62496Z" />
</svg>
