<svg width="30" height="30" viewBox="0 0 30 30" xmlns="http://www.w3.org/2000/svg">
<path d="M24.803 13.4634C25.1231 12.2073 25.0489 10.8828 24.5906 9.6704C24.6381 9.65537 26.4424 7.81643 26.4811 7.79265C26.6575 8.11575 26.9247 8.37979 27.2496 8.55191C27.5746 8.72403 27.9428 8.79664 28.3086 8.7607C28.6744 8.72476 29.0216 8.58186 29.307 8.34977C29.5924 8.11769 29.8033 7.80667 29.9136 7.45541C30.0239 7.10415 30.0287 6.72814 29.9273 6.37418C29.826 6.02022 29.623 5.70393 29.3436 5.46464C29.0643 5.22536 28.7208 5.07366 28.3561 5.0284C27.9913 4.98315 27.6213 5.04634 27.2921 5.21012C27.4556 4.88031 27.5186 4.50963 27.4735 4.14419C27.4283 3.77874 27.2769 3.43467 27.038 3.15478C26.7992 2.87488 26.4835 2.67152 26.1302 2.56999C25.7769 2.46846 25.4016 2.47325 25.0509 2.58375C24.7003 2.69425 24.3899 2.9056 24.1582 3.19149C23.9266 3.47739 23.7839 3.82521 23.7481 4.19168C23.7122 4.55816 23.7847 4.92712 23.9565 5.25265C24.1283 5.57818 24.3918 5.84592 24.7143 6.02256C24.6956 6.0501 22.84 7.87777 22.84 7.90907C21.0607 6.95267 17.3734 7.90907 15.1755 9.11584C7.7383 7.26062 0.0362362 11.8561 0 20.0293V23.244C0.00667025 24.7504 0.552601 26.2044 1.53857 27.3417C2.52453 28.4791 3.88509 29.2242 5.37295 29.4418C13.0538 30.6699 29.6799 30.4696 29.9886 22.533C29.9886 19.4697 28.0493 16.1073 24.803 13.4634ZM18.2968 10.5004C20.0898 9.89823 21.5893 9.85441 22.1203 10.3852C23.3261 11.5932 21.4168 16.8184 19.3951 18.8438C15.5703 22.533 9.99619 16.9473 13.6785 13.1167C15.0255 11.9407 16.5966 11.0507 18.2968 10.5004ZM11.2457 27.5403C9.39528 27.459 7.5514 27.2663 5.72407 26.9632C4.83097 26.833 4.01419 26.386 3.42232 25.7035C2.83045 25.0209 2.50282 24.1482 2.49905 23.244V20.0293C2.49187 18.8165 2.73763 17.6157 3.2206 16.5036C3.70356 15.3915 4.41307 14.3928 5.30368 13.5713C6.19428 12.7499 7.24633 12.1239 8.39242 11.7335C9.53852 11.3431 10.7534 11.1968 11.9592 11.304C4.7182 20.0043 19.3489 28.9273 23.9946 16.061C33.1124 25.2494 22.8663 27.4376 11.2457 27.5403ZM8.74666 3.75549V1.25183C8.74666 0.919825 8.87831 0.601417 9.11264 0.366653C9.34697 0.131889 9.66479 0 9.99619 0C10.3276 0 10.6454 0.131889 10.8797 0.366653C11.1141 0.601417 11.2457 0.919825 11.2457 1.25183V3.75549C11.2457 4.0875 11.1141 4.40591 10.8797 4.64067C10.6454 4.87544 10.3276 5.00733 9.99619 5.00733C9.66479 5.00733 9.34697 4.87544 9.11264 4.64067C8.87831 4.40591 8.74666 4.0875 8.74666 3.75549ZM13.7448 3.75549V1.25183C13.7448 0.919825 13.8764 0.601417 14.1107 0.366653C14.3451 0.131889 14.6629 0 14.9943 0C15.3257 0 15.6435 0.131889 15.8778 0.366653C16.1122 0.601417 16.2438 0.919825 16.2438 1.25183V3.75549C16.2438 4.0875 16.1122 4.40591 15.8778 4.64067C15.6435 4.87544 15.3257 5.00733 14.9943 5.00733C14.6629 5.00733 14.3451 4.87544 14.1107 4.64067C13.8764 4.40591 13.7448 4.0875 13.7448 3.75549ZM3.74857 3.75549V1.25183C3.74857 0.919825 3.88022 0.601417 4.11455 0.366653C4.34888 0.131889 4.6667 0 4.99809 0C5.32949 0 5.64731 0.131889 5.88164 0.366653C6.11597 0.601417 6.24762 0.919825 6.24762 1.25183V3.75549C6.24762 4.0875 6.11597 4.40591 5.88164 4.64067C5.64731 4.87544 5.32949 5.00733 4.99809 5.00733C4.6667 5.00733 4.34888 4.87544 4.11455 4.64067C3.88022 4.40591 3.74857 4.0875 3.74857 3.75549Z" />
</svg>
