<svg width="35" height="29" viewBox="0 0 35 29" xmlns="http://www.w3.org/2000/svg">
<path d="M33.5417 26.1013V23.2026C33.5364 19.2276 32.0384 15.3976 29.3411 12.4624C26.6437 9.52731 22.9412 7.6984 18.9583 7.33376V5.40903C19.5144 5.08998 19.9489 4.5975 20.1947 4.00797C20.4404 3.41844 20.4835 2.76481 20.3173 2.14845C20.1511 1.5321 19.7849 0.987455 19.2756 0.599004C18.7662 0.210553 18.1421 0 17.5 0C16.8579 0 16.2338 0.210553 15.7244 0.599004C15.2151 0.987455 14.8489 1.5321 14.6827 2.14845C14.5165 2.76481 14.5596 3.41844 14.8054 4.00797C15.0511 4.5975 15.4856 5.08998 16.0417 5.40903V7.33376C12.0588 7.6984 8.35628 9.52731 5.65893 12.4624C2.96158 15.3976 1.46363 19.2276 1.45833 23.2026V26.1013H0V29H35V26.1013H33.5417ZM4.375 23.2026C5.06479 5.90615 29.941 5.9192 30.625 23.2026V26.1013H4.375V23.2026Z" />
</svg>
