<svg width="22" height="23" viewBox="0 0 22 23" fill="none" xmlns="http://www.w3.org/2000/svg">
<path d="M11.9002 1.60931C11.9002 1.36579 11.997 1.13225 12.1691 0.96006C12.3413 0.787869 12.5749 0.691133 12.8184 0.691133C15.2527 0.693806 17.5865 1.66202 19.3078 3.38336C21.0291 5.10469 21.9973 7.43855 22 9.87288C22 10.1164 21.9033 10.3499 21.7311 10.5221C21.5589 10.6943 21.3253 10.7911 21.0818 10.7911C20.8383 10.7911 20.6048 10.6943 20.4326 10.5221C20.2604 10.3499 20.1637 10.1164 20.1637 9.87288C20.1615 7.92543 19.3869 6.05837 18.0099 4.68132C16.6328 3.30426 14.7658 2.52967 12.8184 2.52748C12.5749 2.52748 12.3413 2.43075 12.1691 2.25856C11.997 2.08636 11.9002 1.85282 11.9002 1.60931ZM12.8184 6.20018C13.7924 6.20018 14.7266 6.58713 15.4153 7.27589C16.1041 7.96466 16.491 8.89882 16.491 9.87288C16.491 10.1164 16.5878 10.3499 16.76 10.5221C16.9321 10.6943 17.1657 10.7911 17.4092 10.7911C17.6527 10.7911 17.8862 10.6943 18.0584 10.5221C18.2306 10.3499 18.3274 10.1164 18.3274 9.87288C18.3259 8.41224 17.745 7.01184 16.7122 5.97901C15.6794 4.94618 14.279 4.36529 12.8184 4.36383C12.5749 4.36383 12.3413 4.46057 12.1691 4.63276C11.997 4.80495 11.9002 5.03849 11.9002 5.28201C11.9002 5.52552 11.997 5.75906 12.1691 5.93125C12.3413 6.10345 12.5749 6.20018 12.8184 6.20018ZM21.1672 16.0605C21.6993 16.594 21.9981 17.3168 21.9981 18.0703C21.9981 18.8239 21.6993 19.5467 21.1672 20.0802L20.3317 21.0434C12.812 28.2428 -5.487 9.94817 1.6012 2.40445L2.65709 1.48627C3.19125 0.969044 3.90756 0.682915 4.65106 0.689788C5.39457 0.696661 6.10547 0.995984 6.62998 1.523C6.65844 1.55146 8.35979 3.76151 8.35979 3.76151C8.86462 4.29187 9.14565 4.99639 9.14445 5.72861C9.14326 6.46083 8.85993 7.16442 8.35336 7.69313L7.29013 9.03C7.87854 10.4597 8.74364 11.759 9.83574 12.8534C10.9278 13.9477 12.2254 14.8154 13.6539 15.4067L14.999 14.337C15.5278 13.8309 16.2312 13.5479 16.9632 13.5468C17.6952 13.5458 18.3995 13.8268 18.9297 14.3315C18.9297 14.3315 21.1388 16.032 21.1672 16.0605ZM19.9038 17.3955C19.9038 17.3955 17.7067 15.7051 17.6782 15.6767C17.4891 15.4891 17.2335 15.3839 16.9671 15.3839C16.7007 15.3839 16.4451 15.4891 16.256 15.6767C16.2312 15.7024 14.3793 17.1779 14.3793 17.1779C14.2545 17.2772 14.1059 17.3423 13.9483 17.3668C13.7907 17.3913 13.6294 17.3743 13.4804 17.3174C11.6298 16.6284 9.94889 15.5497 8.55153 14.1544C7.15418 12.7591 6.07302 11.0798 5.38127 9.23016C5.31994 9.07908 5.29994 8.91439 5.32334 8.75302C5.34674 8.59165 5.41269 8.43942 5.51441 8.31199C5.51441 8.31199 6.98989 6.45911 7.01468 6.43523C7.20224 6.24608 7.30747 5.99049 7.30747 5.72411C7.30747 5.45773 7.20224 5.20214 7.01468 5.01298C6.98622 4.98544 5.29589 2.78641 5.29589 2.78641C5.1039 2.61426 4.85334 2.52206 4.59556 2.52872C4.33778 2.53538 4.09231 2.64038 3.90946 2.82222L2.85358 3.74039C-2.32669 9.96929 13.5309 24.9475 18.9893 19.7892L19.8258 18.8251C20.0218 18.6435 20.1395 18.3929 20.1541 18.1261C20.1687 17.8593 20.0789 17.5973 19.9038 17.3955Z" fill="black"/>
</svg>
