<svg width="23" height="21" viewBox="0 0 23 21" fill="none" xmlns="http://www.w3.org/2000/svg">
<path d="M22.3689 0.797509C21.811 0.336381 20.9782 0.250822 20.1432 0.569723C19.6255 0.766396 11.5151 4.06318 3.95456 7.13774L1.45737 8.15333C0.490006 8.53223 0 9.1467 0 9.97673C0 10.5579 0.255355 11.3479 1.47002 11.8124L5.68798 13.4424C6.05261 14.4991 6.89919 16.9525 7.11199 17.6048C7.23851 17.9915 7.55828 18.966 8.36576 19.1937C8.53139 19.2482 8.70393 19.276 8.87992 19.276C9.38948 19.276 9.75641 19.0471 9.93585 18.9137L12.6148 16.7248L15.8711 19.6326C15.9965 19.756 16.6591 20.3793 17.5505 20.3793C18.6628 20.3793 19.5071 19.4849 19.6831 18.6193C19.7785 18.1448 22.9176 2.92203 22.9176 2.92203C23.1994 1.70088 22.6944 1.06752 22.3689 0.797509ZM17.4412 18.0081L12.6826 13.7569L9.19739 16.607C8.78445 15.3769 7.70091 12.249 7.70091 12.249L7.53298 11.7612L2.90783 9.97451L4.8483 9.1867C9.79322 7.17552 18.6007 3.59428 20.5975 2.79203C20.1639 4.8921 17.8001 16.3559 17.4412 18.0081Z" fill="black"/>
<path d="M17.0202 5.93436C16.8765 5.93436 16.6821 6.06659 16.5785 6.12881C15.097 7.02107 7.66871 11.1046 5.63162 12.2224C6.20559 12.4446 6.61048 12.6013 6.61048 12.6013C6.61048 12.6013 7.93442 16.4292 8.20933 17.2681C8.48424 18.1081 8.70508 18.1281 8.70508 18.1281C8.76605 18.1537 8.82586 18.1637 8.88107 18.1637C8.92593 18.1637 8.95699 18.1481 8.99494 18.1381L10.3488 13.018C10.3488 13.018 16.5176 6.98662 16.8891 6.6355C17.1882 6.35438 17.2503 6.25549 17.2503 6.1577C17.2503 6.0277 17.1801 5.93436 17.0202 5.93436Z" fill="black"/>
</svg>
